<?xml version="1.0" encoding="iso-8859-1"?>
<!-- Generator: Adobe Illustrator 19.0.0, SVG Export Plug-In . SVG Version: 6.00 Build 0)  -->
<svg version="1.1" id="Layer_1" xmlns="http://www.w3.org/2000/svg" xmlns:xlink="http://www.w3.org/1999/xlink" x="0px" y="0px"
	 viewBox="0 0 511.573 511.573" style="enable-background:new 0 0 511.573 511.573;" xml:space="preserve">
<g transform="translate(1 1)">
	<g>
		<g>
			<path d="M254.787,67.053c-103.253,0-187.733,84.48-187.733,187.733s84.48,187.733,187.733,187.733S442.52,358.04,442.52,254.787
				S358.04,67.053,254.787,67.053z M254.787,425.453c-93.867,0-170.667-76.8-170.667-170.667S160.92,84.12,254.787,84.12
				s170.667,76.8,170.667,170.667S348.653,425.453,254.787,425.453z" fill="#ffffff"/>
			<path d="M323.053,323.053h-25.6V203.587c0-5.12-3.413-8.533-8.533-8.533h-76.8c-5.12,0-8.533,3.413-8.533,8.533v34.133
				c0,5.12,3.413,8.533,8.533,8.533h17.067v76.8h-25.6c-5.12,0-8.533,3.413-8.533,8.533v34.133c0,5.12,3.413,8.533,8.533,8.533
				h119.467c5.12,0,8.533-3.413,8.533-8.533v-34.133C331.587,326.467,328.173,323.053,323.053,323.053z M314.52,357.187h-102.4
				V340.12h25.6c5.12,0,8.533-3.413,8.533-8.533V237.72c0-5.12-3.413-8.533-8.533-8.533h-17.067V212.12h59.733v119.467
				c0,5.12,3.413,8.533,8.533,8.533h25.6V357.187z" fill="#f0f0f0"/>
			<path d="M254.787,177.987c18.773,0,34.133-15.36,34.133-34.133c0-18.773-15.36-34.133-34.133-34.133
				c-18.773,0-34.133,15.36-34.133,34.133C220.653,162.627,236.013,177.987,254.787,177.987z M254.787,126.787
				c9.387,0,17.067,7.68,17.067,17.067s-7.68,17.067-17.067,17.067c-9.387,0-17.067-7.68-17.067-17.067
				S245.4,126.787,254.787,126.787z" fill="#f0f0f0"/>
		</g>
	</g>
</g>
<g>
</g>
<g>
</g>
<g>
</g>
<g>
</g>
<g>
</g>
<g>
</g>
<g>
</g>
<g>
</g>
<g>
</g>
<g>
</g>
<g>
</g>
<g>
</g>
<g>
</g>
<g>
</g>
<g>
</g>
</svg>
